<?xml version="1.0" standalone="no"?>
<!DOCTYPE svg PUBLIC "-//W3C//DTD SVG 20010904//EN"
 "http://www.w3.org/TR/2001/REC-SVG-20010904/DTD/svg10.dtd">
<svg version="1.0" xmlns="http://www.w3.org/2000/svg"
 width="512.000000pt" height="512.000000pt" viewBox="0 0 512.000000 512.000000"
 preserveAspectRatio="xMidYMid meet">
<metadata>
Created by potrace 1.14, written by Peter Selinger 2001-2017
</metadata>
<g transform="translate(0.000000,512.000000) scale(0.100000,-0.100000)"
fill="#000000" stroke="none">
<path d="M602 4393 c-27 -11 -42 -62 -42 -148 l0 -85 -209 0 c-115 0 -217 -3
-226 -6 -47 -18 -45 44 -45 -1674 0 -1781 -4 -1663 63 -1675 17 -3 866 -4
1885 -3 l1854 3 19 24 c10 13 19 40 20 60 1 75 43 146 113 191 90 59 218 47
291 -28 45 -48 63 -82 71 -140 15 -114 13 -114 343 -110 l262 3 19 25 c19 24
20 63 20 1640 0 888 -3 1625 -6 1638 -13 47 -43 52 -324 52 -246 0 -261 -1
-280 -20 -11 -11 -22 -30 -24 -42 -3 -13 -7 -34 -10 -48 -10 -57 -16 -72 -43
-109 -85 -118 -257 -132 -361 -30 -42 42 -53 68 -78 184 -6 27 -17 43 -34 52
-19 10 -195 13 -792 13 l-766 0 -4 100 c-4 140 4 134 -215 138 -193 4 -214 1
-243 -28 -17 -17 -20 -34 -20 -115 l0 -95 -79 0 -79 0 -4 100 c-4 141 6 134
-231 138 -247 3 -241 7 -245 -137 l-4 -101 -79 0 -79 0 0 83 c0 156 -2 157
-247 156 -98 0 -184 -3 -191 -6z"/>
</g>
</svg>
